<svg xmlns="http://www.w3.org/2000/svg" viewBox="0 0 288 288">
  <title>icons</title>
  <g>
    <path d="M249.2,110.4a66.1,66.1,0,0,0-17.6-5.6c-3.8-8.8-12.3-24.4-28.4-31.3-13.5-5.8-27.2-4.4-35.7-2.5-8.2-12-28.1-34.1-62.9-32.9-44.5,1.6-63.4,36.2-66.7,70.4C26.1,114,11.6,127.3,12.6,152c.7,18.7,9.7,32.7,25.9,40.3,9.7,4.5,21.8,6.7,36.9,6.7h25.3s10,0,10-9.6-10-10.4-10-10.4H75.4C38,179,33,163.1,32.6,151.2c-.4-8.8,2.2-15.8,7.8-20.6a25.1,25.1,0,0,1,9.3-5.2l7.4-1.6.3-7.8c.3-6.5,1.7-23.2,10.1-36.9s20.6-20.4,37.8-21c33.4-1.2,48,27.8,48.6,28.9l4,8.6,8.8-3.6c.1-.1,15.1-6,28.6-.1s19.3,24.6,19.4,24.8l1.9,7,7.3.3a47.9,47.9,0,0,1,16.7,4.4c10,4.9,14.9,12.5,14.9,23.5,0,22.8-12.7,27.1-36.2,27.1H177.9s-10,0-10,10.1,10,9.9,10,9.9h41.4c7.7,0,22,0,34.1-6.1,10-5.1,22.1-16.3,22.1-41C275.5,133.3,266.2,118.6,249.2,110.4Z" style="fill: #fff"/>
    <path d="M177.8,149.1l-31.4-29.7a10.2,10.2,0,0,0-13.8,0l-31.4,29.7A10,10,0,1,0,115,163.6l14.5-13.7v87.6a10,10,0,0,0,20,0V149.9L164,163.6a10.2,10.2,0,0,0,6.9,2.7,10,10,0,0,0,6.9-17.2Z" style="fill: #fff"/>
  </g>
</svg>
