<svg xmlns="http://www.w3.org/2000/svg" viewBox="0 0 288 288">
  <title>icons</title>
  <g>
    <path d="M182.6,97.4a1.8,1.8,0,0,0-1.4-1.1l-25.3-2.1-9.8-23.8a1.5,1.5,0,0,0-1.5-1,1.8,1.8,0,0,0-1.5,1l-9.8,23.8-26.4,1.3a1.6,1.6,0,0,0-1.5,1.1,1.8,1.8,0,0,0,.5,1.8l20.4,17.3-8.1,27.6a1.7,1.7,0,0,0,.6,1.8,1.7,1.7,0,0,0,1.9,0l23.9-16,25.1,16.7.9.3a1.4,1.4,0,0,0,1-.4,1.6,1.6,0,0,0,.5-1.7L163,115.7l19.1-16.6A1.6,1.6,0,0,0,182.6,97.4Z" style="fill: #fff"/>
    <g>
      <path d="M144,173.8a62.7,62.7,0,1,0-62.7-62.7A62.7,62.7,0,0,0,144,173.8Z" style="fill: none"/>
      <path d="M144,191.8a80.9,80.9,0,1,0-55.8-22.5,8.8,8.8,0,0,0-.2,1.6v75.2a9,9,0,0,0,5.1,8.1,9.1,9.1,0,0,0,9.5-1l21-16.6,14.9,12.7a9.2,9.2,0,0,0,11.3.3l15.8-12.2,19.8,15.8a8.8,8.8,0,0,0,5.6,1.9,9.2,9.2,0,0,0,3.9-.9,9,9,0,0,0,5.1-8.1V208.2a9,9,0,0,0-18,0v19.2l-10.6-8.5a9,9,0,0,0-11.1-.1l-15.7,12-14.9-12.6a9,9,0,0,0-11.4-.3L106,227.6V182.3A79.9,79.9,0,0,0,144,191.8ZM81.3,111.1A62.7,62.7,0,1,1,144,173.8,62.7,62.7,0,0,1,81.3,111.1Z" style="fill: #fff"/>
    </g>
  </g>
</svg>
