<svg xmlns="http://www.w3.org/2000/svg" viewBox="0 0 288 288">
  <title>icons</title>
  <g>
    <g>
      <circle cx="72.9" cy="126.2" r="38.9" style="fill: none"/>
      <path d="M64,195v37.2a10.2,10.2,0,1,0,20.4,0V194.5a54.7,54.7,0,0,1-11.5,1.1A65.4,65.4,0,0,1,64,195Z" style="fill: #fff"/>
    </g>
    <path d="M137.6,229.6v17.9a10.2,10.2,0,1,0,20.4,0V229.2a61.5,61.5,0,0,1-11.5,1.1A52.6,52.6,0,0,1,137.6,229.6Z" style="fill: #fff"/>
    <g>
      <path d="M199.5,168.5V235a10.2,10.2,0,1,0,20.4,0V168.9a51.4,51.4,0,0,1-8.8.7A63.4,63.4,0,0,1,199.5,168.5Z" style="fill: #fff"/>
      <g>
        <circle cx="72.9" cy="126.2" r="38.9" style="fill: none"/>
        <circle cx="72.9" cy="126.2" r="38.9" style="fill: none"/>
        <g>
          <circle cx="72.9" cy="126.2" r="38.9" style="fill: none"/>
          <path d="M147.8,154.1a22.7,22.7,0,1,0,22.7,22.7A22.7,22.7,0,0,0,147.8,154.1Z" style="fill: none"/>
          <path d="M211.1,52.2A42.9,42.9,0,1,0,254,95.1,42.9,42.9,0,0,0,211.1,52.2Z" style="fill: none"/>
          <path d="M211.1,31.8a63.2,63.2,0,0,0-47.7,104.8,45,45,0,0,0-15.6-2.9,43,43,0,0,0-16.5,3.3,63.8,63.8,0,0,0,1-10.8A59.4,59.4,0,1,0,64,184.8a52.6,52.6,0,0,0,8.9.7,62.3,62.3,0,0,0,11.5-1.1,60.1,60.1,0,0,0,20.3-8.1v.5a42.9,42.9,0,0,0,43.1,43.1,43.7,43.7,0,0,0,11.5-1.6,43,43,0,0,0,23.5-66.6,63.4,63.4,0,0,0,16.7,5.7,73.6,73.6,0,0,0,11.6,1,63.3,63.3,0,0,0,0-126.6ZM72.9,165.1a39,39,0,1,1,39-38.9A38.9,38.9,0,0,1,72.9,165.1Zm74.9,34.4a22.7,22.7,0,1,1,22.7-22.7A22.7,22.7,0,0,1,147.8,199.5ZM211.1,138A42.9,42.9,0,1,1,254,95.1,42.9,42.9,0,0,1,211.1,138Z" style="fill: #fff"/>
        </g>
      </g>
    </g>
  </g>
</svg>
