<svg xmlns="http://www.w3.org/2000/svg" viewBox="0 0 288 288">
  <title>icons</title>
  <g>
    <path d="M214.9,177.3l-.6-.3a78.4,78.4,0,0,0,.6-68.6h.1L239.7,86a2,2,0,0,0,.2-2.6L229.4,69a2.1,2.1,0,0,0-2.6-.6L198.1,85.3A78.3,78.3,0,0,0,158.3,65l-3.4-32.9a2,2,0,0,0-2-1.8H135.1a2,2,0,0,0-2,1.8l-3.4,33A77.7,77.7,0,0,0,90.3,85.3h-.2l-28.7-17a2,2,0,0,0-2.6.6L48.2,83.1a2,2,0,0,0,.3,2.7l24.6,22.4.3.2a78.2,78.2,0,0,0,.5,68.3l-.9.4L48.3,199.5a2,2,0,0,0-.2,2.7l10.5,14.3a1.9,1.9,0,0,0,1.6.9,1.7,1.7,0,0,0,1-.3L90,200.2a1.8,1.8,0,0,0,.7-.8,78.4,78.4,0,0,0,39.2,19.8,1.4,1.4,0,0,0-.2,1.1l3.4,33.2a2,2,0,0,0,2,1.7h17.8a2,2,0,0,0,2-1.7l3.4-33.2a1.5,1.5,0,0,0-.2-1.1,78.8,78.8,0,0,0,39.2-19.5.9.9,0,0,0,.6.6l28.7,17a1.7,1.7,0,0,0,1,.3,1.9,1.9,0,0,0,1.6-.9l10.6-14.3a2,2,0,0,0-.3-2.7Zm-70.7,23.2a58.4,58.4,0,1,1,58.3-58.4A58.5,58.5,0,0,1,144.2,200.5Z" style="fill: #fff"/>
    <circle cx="144" cy="142.8" r="15.9" transform="translate(-21 24.9) rotate(-9.2)" style="fill: #fff"/>
  </g>
</svg>
