<svg xmlns="http://www.w3.org/2000/svg" viewBox="0 0 288 288">
  <title>icons</title>
  <g>
    <path d="M144,35C84.6,35,36.3,83.4,36.3,142.8a107.7,107.7,0,0,0,215.4,0C251.7,83.4,203.4,35,144,35Zm0,195.5a87.8,87.8,0,1,1,87.7-87.7A87.8,87.8,0,0,1,144,230.5Z" style="fill: #fff"/>
    <path d="M91.1,116.5c.5-1.3,2.3-5.9,7.6-5.9s7.3,6.8,7.3,6.8,4.9,9.6,13.6,5.9,5-13.4,5-13.4c-2.9-7.1-11.6-19.3-25.9-19.3-16.6,0-24.8,13.3-26.8,20.3,0,0-2.9,9.5,5.6,11.8,10.7,3,13.7-6.3,13.7-6.3Z" style="fill: #fff"/>
    <path d="M214,109.9c-2.8-7.1-11.5-19.3-25.9-19.3-16.6,0-24.7,13.3-26.7,20.3,0,0-3,8.9,6.4,11.7s12.8-6.2,12.8-6.2h-.1c.5-1.3,2.4-5.9,7.6-5.9s7.4,6.8,7.4,6.8,4.7,8.3,13.1,4.4S214,109.9,214,109.9Z" style="fill: #fff"/>
    <path d="M194,141.1a10.1,10.1,0,0,0-13.7,3.7c-.1.1-8,11.5-35.8,11.5-24.6,0-35-12.2-35.5-12.8v.2s-6.1-7.7-14.4-.9-1.4,13.1-1.4,13.1,16.3,20.4,51.2,20.4c39.4,0,51.8-19.3,53.1-21.5A10.2,10.2,0,0,0,194,141.1Z" style="fill: #fff"/>
  </g>
</svg>
