<svg xmlns="http://www.w3.org/2000/svg" viewBox="0 0 288 288">
  <title>icons</title>
  <path d="M205.4,140.5c-.3,23.1-7.6,41.2-23.5,58.7-14,15.3-35.1,26.6-43.8,30.8-8.7-4.2-29.8-15.5-43.8-30.8-15.9-17.5-23.1-35.6-23.5-58.7-.3-15.8-.2-43.4-.1-58,13.2-1.2,37.1-6.4,67.4-26,23.6,15.3,43.4,21.8,57.2,24.5l-59.4,71.6-28.7-28.8A10,10,0,0,0,93,137.9l3.2,3.2,33.3,33.4a9.7,9.7,0,0,0,7,2.9h.5a9.7,9.7,0,0,0,7.2-3.6L235.1,64.4a10.1,10.1,0,0,0-1-13.8l-.3-.3a10.1,10.1,0,0,0-14.1,1.3l-9.3,11.2a78.4,78.4,0,0,1-15.3-2.2c-11.2-2.7-29.3-9.2-51.3-24.4a10.3,10.3,0,0,0-11.4,0c-22,15.2-40.1,21.7-51.3,24.4S62,62.8,62,62.8a10,10,0,0,0-11.2,9.9c0,.4-.4,45.8,0,68.2.5,27.9,9.6,50.7,28.8,71.8,20.8,22.8,53.2,37,54.6,37.5a8.9,8.9,0,0,0,3.9.9,9.3,9.3,0,0,0,4-.9c1.3-.5,33.7-14.7,54.6-37.5,19.1-21.1,28.3-43.9,28.7-71.8.2-10.9.2-19.7.2-32.5,0-2.4.2-5,.2-9.9s-20.9,15.6-20.3,24.5v4.5C205.6,136.5,205.6,133.9,205.4,140.5Z" style="fill: #fff"/>
</svg>
