<svg xmlns="http://www.w3.org/2000/svg" viewBox="0 0 288 288">
  <title>icons</title>
  <path d="M272.6,103.2c-1.2-22.1-11.3-40.6-28.4-52-21.3-14.2-44.8-16.4-68-6.6a91.7,91.7,0,0,0-20.9,12.6,92.7,92.7,0,0,0-21-12.6c-23.2-9.8-46.7-7.6-68,6.6-17.1,11.4-27.2,29.9-28.4,52a89.9,89.9,0,0,0,5.7,35.6H25.3a10,10,0,0,0,0,20h86.4a10.1,10.1,0,0,0,9.1-5.7l5.7-12.2,9.1,33.7a9.8,9.8,0,0,0,8.1,7.3h1.5a9.9,9.9,0,0,0,8.4-4.6l20.3-31.5H202a10,10,0,0,0,0-20H168.5a10.2,10.2,0,0,0-8.5,4.5l-11,17.2-10.3-38.3a9.8,9.8,0,0,0-8.7-7.4,10,10,0,0,0-10,5.7l-14.6,31.2H65.2c-5.3-11.3-7.9-23.1-7.3-34.5.8-15.7,7.8-28.6,19.5-36.4,10.1-6.7,19.8-9.2,28.7-9.2,23.6,0,40.9,17.7,41.9,18.7a9.8,9.8,0,0,0,14.5,0A74.3,74.3,0,0,1,184,63c16.9-7.2,33.5-5.5,49.1,4.9,11.8,7.8,18.7,20.7,19.5,36.4,1.3,24.1-11.5,49.7-34.2,68.5-32.1,26.7-53.4,43.7-63.1,51.4-6.4-5-31.8-25.6-47.7-38.6,0,0-11.4-9.3-18-1.7s.6,13.3.6,13.3c38.5,31.8,58.7,47.4,58.9,47.6a10.1,10.1,0,0,0,12.3,0c.2-.2,24.2-18.8,69.7-56.6C258.7,165.4,274.2,133.6,272.6,103.2Z" style="fill: #fff"/>
</svg>
