<svg xmlns="http://www.w3.org/2000/svg" viewBox="0 0 288 288">
  <title>icons</title>
  <g>
    <path d="M151.9,132.8h-.4V41.4a10.7,10.7,0,0,0-5.4-9.3,10.5,10.5,0,0,0-5.3-1.4A10.7,10.7,0,0,0,130,41.4V53.6c-27,4.2-45.6,22.7-45.6,47.1v.5c0,27.4,17.8,39.7,45.6,47.5v63.4c-12.4-2.9-23.5-8.8-34.8-18.4h-.1a9.1,9.1,0,0,0-6.3-2.4,10,10,0,0,0-9.9,10.2,9.3,9.3,0,0,0,3.9,7.8h.1C97.5,221,113,228.2,130,231.2v12.9a10.7,10.7,0,0,0,10.8,10.7h0a10.7,10.7,0,0,0,10.7-10.7V153.8c24.4,5.9,36.7,13.1,36.7,30.8v.5c0,13.8-10.2,24.2-25.9,27.8v19c11.6-1.8,21.8-6.1,29.8-12.6,11.1-9,17-21.5,17-36.2v-.5C209.1,156.4,192,141.6,151.9,132.8ZM130,127c-18.5-6.3-25-14.2-25-27.6v-.5c0-13.1,9.9-23.1,25-26.4Z" style="fill: #fff"/>
    <path d="M192.4,88.2a9.9,9.9,0,0,0,10-9.9,10.8,10.8,0,0,0-4.5-8.4c-11.2-8-22.6-13.1-35.6-15.5V74.1a76.5,76.5,0,0,1,24.1,12.3A9.5,9.5,0,0,0,192.4,88.2Z" style="fill: #fff"/>
  </g>
</svg>
