<svg xmlns="http://www.w3.org/2000/svg" viewBox="0 0 288 288">
  <title>icons</title>
  <g>
    <g>
      <path d="M50,166.9a9.8,9.8,0,0,1-7-3L30.7,151.7a10,10,0,0,1,0-14.1,10.1,10.1,0,0,1,14.2,0l5.1,5.1,21.2-21.1a10,10,0,1,1,14.1,14.1L57.1,163.9A10,10,0,0,1,50,166.9Z" style="fill: #fff"/>
      <path d="M250.2,156.8H108.9a10,10,0,0,1,0-20H250.2a10,10,0,0,1,0,20Z" style="fill: #fff"/>
    </g>
    <g>
      <path d="M50,96.8a9.7,9.7,0,0,1-7-2.9L30.7,81.7A10,10,0,1,1,44.9,67.5L50,72.7,71.2,51.5a10,10,0,0,1,14.1,0,10.1,10.1,0,0,1,0,14.2L57.1,93.9A9.9,9.9,0,0,1,50,96.8Z" style="fill: #fff"/>
      <path d="M250.2,86.8H108.9a10,10,0,0,1,0-20H250.2a10,10,0,0,1,0,20Z" style="fill: #fff"/>
    </g>
    <g>
      <path d="M50,236.9a10,10,0,0,1-7-2.9L30.7,221.8a10,10,0,1,1,14.2-14.2l5.1,5.2,21.2-21.2a10,10,0,0,1,14.1,0,10.1,10.1,0,0,1,0,14.2L57.1,234A10.2,10.2,0,0,1,50,236.9Z" style="fill: #fff"/>
      <path d="M250.2,226.9H108.9a10,10,0,0,1,0-20H250.2a10,10,0,0,1,0,20Z" style="fill: #fff"/>
    </g>
  </g>
</svg>
