<svg xmlns="http://www.w3.org/2000/svg" viewBox="0 0 288 288"><defs><style>.a{fill:#fff;}</style></defs><title>lll</title><path class="a" d="M249.24,110.39a68.32,68.32,0,0,0-17.65-5.58c-3.74-8.85-12.31-24.36-28.35-31.28C189.67,67.67,176,69.05,167.48,71c-8.2-12-28.09-34.07-62.86-32.84-44.49,1.55-63.42,36.2-66.74,70.37C26.1,114,11.57,127.33,12.57,152c.75,18.73,9.72,32.66,25.93,40.27,9.71,4.56,21.78,6.77,36.89,6.77h25.3s10,0,10-9.63c0-10.75-10-10.37-10-10.37H75.39C38,179,33,163.15,32.55,151.19c-.36-8.83,2.28-15.78,7.84-20.63a25.83,25.83,0,0,1,9.35-5.19l7.37-1.56.3-7.79c.25-6.53,1.73-23.19,10.07-36.89,8.25-13.55,20.63-20.44,37.84-21,33.36-1.16,48,27.76,48.56,29l4.05,8.56L166.68,92c.14-.06,15.08-5.93,28.64-.08,13.79,6,19.31,24.64,19.36,24.79l1.95,7,7.24.31a49,49,0,0,1,16.68,4.43c10,4.84,14.93,12.53,14.93,23.5,0,22.81-12.72,27.13-36.19,27.13H177.91s-10,0-10,10.05c0,9.95,10,9.95,10,9.95h41.38c7.7,0,22,0,34.07-6.09,10.09-5.12,22.12-16.4,22.12-41C275.48,133.3,266.16,118.55,249.24,110.39Z"/><path class="a" d="M177.77,149.07l-31.39-29.65a10,10,0,0,0-13.74,0l-31.39,29.65A10,10,0,0,0,115,163.61l14.53-13.72v87.58a10,10,0,1,0,20,0V149.89L164,163.61a10,10,0,0,0,13.74-14.54Z"/></svg>