<svg xmlns="http://www.w3.org/2000/svg" viewBox="0 0 288 288"><defs><style>.a{fill:#fff;}.b{fill:none;}</style></defs><title>lll</title><path class="a" d="M182.58,97.42a1.61,1.61,0,0,0-1.41-1.11l-25.26-2.07-9.8-23.8a1.62,1.62,0,0,0-3,0l-9.79,23.77-26.45,1.3a1.63,1.63,0,0,0-1.45,1.1,1.59,1.59,0,0,0,.48,1.75l20.39,17.33-8.09,27.65a1.62,1.62,0,0,0,2.46,1.8l24-16.09,25.06,16.75a1.66,1.66,0,0,0,.9.27,1.62,1.62,0,0,0,1.54-2.12L163,115.66,182.1,99.15A1.64,1.64,0,0,0,182.58,97.42Z"/><path class="b" d="M144,173.81A62.71,62.71,0,1,0,81.29,111.1,62.78,62.78,0,0,0,144,173.81Z"/><path class="a" d="M144,191.81a80.84,80.84,0,1,0-55.83-22.5,9.43,9.43,0,0,0-.15,1.6v75.22a9,9,0,0,0,14.57,7.08l21-16.56,14.84,12.62a9,9,0,0,0,11.32.29l15.84-12.18,19.74,15.78a9,9,0,0,0,14.62-7V208.21a9,9,0,0,0-18,0v19.2l-10.63-8.49a9,9,0,0,0-11.1-.11l-15.67,12-14.9-12.68a9,9,0,0,0-11.4-.22L106,227.6V182.3A80.3,80.3,0,0,0,144,191.81ZM81.29,111.1A62.71,62.71,0,1,1,144,173.81,62.78,62.78,0,0,1,81.29,111.1Z"/></svg>