<svg xmlns="http://www.w3.org/2000/svg" viewBox="0 0 288 288"><defs><style>.a{fill:none;}.b{fill:#fff;}</style></defs><title>lll</title><circle class="a" cx="72.93" cy="126.19" r="38.94"/><path class="b" d="M64,195v37.28a10.2,10.2,0,0,0,20.4,0V194.53A59.15,59.15,0,0,1,64,195Z"/><path class="b" d="M137.58,229.64v17.89a10.2,10.2,0,1,0,20.4,0V229.2a59.15,59.15,0,0,1-20.4.44Z"/><path class="b" d="M199.53,168.5V235a10.2,10.2,0,1,0,20.39,0V169a62.32,62.32,0,0,1-20.39-.45Z"/><circle class="a" cx="72.93" cy="126.19" r="38.94"/><circle class="a" cx="72.93" cy="126.19" r="38.94"/><circle class="a" cx="72.93" cy="126.19" r="38.94"/><path class="a" d="M147.78,154.11a22.69,22.69,0,1,0,22.69,22.69A22.72,22.72,0,0,0,147.78,154.11Z"/><path class="a" d="M211.09,52.19A42.92,42.92,0,1,0,254,95.11,43,43,0,0,0,211.09,52.19Z"/><path class="b" d="M211.09,31.8a63.26,63.26,0,0,0-47.72,104.85,42.88,42.88,0,0,0-32.1.36,59.54,59.54,0,1,0-26.56,39.24c0,.18,0,.37,0,.55a43.09,43.09,0,0,0,43.09,43.09,42.63,42.63,0,0,0,11.53-1.59,43,43,0,0,0,23.45-66.61,63.23,63.23,0,0,0,28.33,6.74,64.28,64.28,0,0,0,8.83-.63,63.31,63.31,0,0,0-8.83-126ZM72.93,165.13a38.95,38.95,0,1,1,38.94-38.94A39,39,0,0,1,72.93,165.13Zm74.85,34.36a22.69,22.69,0,1,1,22.69-22.69A22.72,22.72,0,0,1,147.78,199.49ZM211.09,138A42.92,42.92,0,1,1,254,95.11,43,43,0,0,1,211.09,138Z"/></svg>