<svg xmlns="http://www.w3.org/2000/svg" viewBox="0 0 288 288"><defs><style>.a{fill:#fff;}</style></defs><title>lll</title><path class="a" d="M214.9,177.31a2,2,0,0,0-.55-.35,78.2,78.2,0,0,0,.58-68.53l.06-.05L239.67,86a2,2,0,0,0,.27-2.66L229.38,69a2,2,0,0,0-2.63-.54L198.07,85.29A78.11,78.11,0,0,0,158.3,65l-3.39-33a2,2,0,0,0-2-1.8H135.08a2,2,0,0,0-2,1.8l-3.39,33A78.21,78.21,0,0,0,90.26,85.3l-.16-.12L61.43,68.24a2,2,0,0,0-2.63.54L48.2,83.13a2,2,0,0,0,.26,2.67L73.1,108.21a1.78,1.78,0,0,0,.31.23,78.18,78.18,0,0,0,.45,68.26,2,2,0,0,0-.85.44L48.33,199.49a2,2,0,0,0-.27,2.66l10.56,14.39a2,2,0,0,0,1.62.82,2,2,0,0,0,1-.28L90,200.21a2,2,0,0,0,.77-.84,78.18,78.18,0,0,0,39.19,19.8,2,2,0,0,0-.23,1.16l3.4,33.12a2,2,0,0,0,2,1.8h17.84a2,2,0,0,0,2-1.8l3.4-33.12a2,2,0,0,0-.21-1.1,78.17,78.17,0,0,0,39.15-19.52,2.06,2.06,0,0,0,.65.63l28.67,16.94a2,2,0,0,0,1,.28,2,2,0,0,0,1.61-.81l10.6-14.36a2,2,0,0,0-.26-2.67Zm-70.73,23.18a58.38,58.38,0,1,1,58.38-58.38A58.45,58.45,0,0,1,144.17,200.49Z"/><circle class="a" cx="144" cy="142.76" r="15.86" transform="translate(-21.01 24.91) rotate(-9.22)"/></svg>