<svg xmlns="http://www.w3.org/2000/svg" viewBox="0 0 288 288"><defs><style>.a{fill:#fff;}</style></defs><title>lll</title><path class="a" d="M144,35A107.74,107.74,0,1,0,251.74,142.76,107.86,107.86,0,0,0,144,35Zm0,195.48a87.74,87.74,0,1,1,87.74-87.74A87.84,87.84,0,0,1,144,230.5Z"/><path class="a" d="M91.11,116.54c.45-1.38,2.33-5.9,7.55-5.9,4.32,0,7.38,6.73,7.38,6.73s4.86,9.6,13.51,5.93,5-13.39,5-13.39c-2.88-7.16-11.57-19.27-25.94-19.27-16.57,0-24.73,13.25-26.73,20.25,0,0-2.93,9.49,5.6,11.83,10.67,2.94,13.63-6.33,13.63-6.33Z"/><path class="a" d="M214,109.91c-2.88-7.15-11.58-19.27-25.95-19.27-16.56,0-24.72,13.25-26.72,20.25,0,0-3,8.88,6.4,11.67,9.85,2.93,12.83-6.17,12.83-6.17l0,.15c.45-1.38,2.32-5.9,7.54-5.9,4.32,0,7.38,6.72,7.38,6.72s4.75,8.36,13.11,4.47S214,109.91,214,109.91Z"/><path class="a" d="M194,141.15a10,10,0,0,0-13.68,3.6c-.07.12-8,11.59-35.78,11.59-24.62,0-35-12.27-35.46-12.8l.09.11S103,136,94.66,142.76c-7.75,6.24-1.32,13.17-1.32,13.17.65.83,16.26,20.41,51.16,20.41,39.39,0,51.78-19.31,53.06-21.52A10,10,0,0,0,194,141.15Z"/></svg>