<svg xmlns="http://www.w3.org/2000/svg" viewBox="0 0 288 288"><defs><style>.a{fill:#fff;}</style></defs><title>lll</title><path class="a" d="M151.94,132.83l-.43-.09V41.43a10.74,10.74,0,0,0-5.36-9.29,10.63,10.63,0,0,0-5.37-1.45A10.74,10.74,0,0,0,130,41.43V53.57C103,57.82,84.39,76.33,84.39,100.68v.5c0,27.38,17.79,39.7,45.65,47.51v63.43c-12.45-2.87-23.51-8.78-34.84-18.37l-.1-.09a9.2,9.2,0,0,0-6.25-2.33,10,10,0,0,0-9.94,10.19,9.37,9.37,0,0,0,3.87,7.82l.12.09C97.49,221,113.05,228.2,130,231.22V244.1a10.73,10.73,0,0,0,10.74,10.73h0a10.73,10.73,0,0,0,10.69-10.73V153.79c24.35,5.87,36.71,13.11,36.71,30.8v.5c0,13.8-10.21,24.25-26,27.82v19c11.69-1.79,21.87-6,29.88-12.57,11.09-9,17-21.55,17-36.22v-.5C209.09,156.45,192,141.56,151.94,132.83ZM130,127c-18.51-6.35-25-14.24-25-27.59v-.5c0-13.17,9.86-23.13,25-26.45Z"/><path class="a" d="M192.43,88.21a10,10,0,0,0,9.94-9.94,10.71,10.71,0,0,0-4.47-8.38A87,87,0,0,0,162.26,54.4V74.09a77.76,77.76,0,0,1,24.18,12.3A9.6,9.6,0,0,0,192.43,88.21Z"/></svg>