<svg xmlns="http://www.w3.org/2000/svg" viewBox="0 0 288 288"><defs><style>.a{fill:#fff;}</style></defs><title>lll</title><path class="a" d="M50,166.86A10,10,0,0,1,43,163.93L30.73,151.71a10,10,0,1,1,14.15-14.14L50,142.72l21.13-21.13A10,10,0,0,1,85.3,135.73l-28.2,28.2A10,10,0,0,1,50,166.86Z"/><path class="a" d="M250.19,156.81H108.88a10,10,0,0,1,0-20H250.19a10,10,0,0,1,0,20Z"/><path class="a" d="M50,96.81A10,10,0,0,1,43,93.88L30.73,81.66A10,10,0,0,1,44.88,67.51L50,72.66,71.16,51.53A10,10,0,0,1,85.3,65.68L57.1,93.88A10,10,0,0,1,50,96.81Z"/><path class="a" d="M250.19,86.76H108.88a10,10,0,0,1,0-20H250.19a10,10,0,0,1,0,20Z"/><path class="a" d="M50,236.92A10,10,0,0,1,43,234L30.74,221.77a10,10,0,1,1,14.14-14.14L50,212.78l21.13-21.14A10,10,0,1,1,85.3,205.79L57.1,234A10,10,0,0,1,50,236.92Z"/><path class="a" d="M250.19,226.87H108.88a10,10,0,0,1,0-20H250.19a10,10,0,0,1,0,20Z"/></svg>