<svg xmlns="http://www.w3.org/2000/svg" xmlns:xlink="http://www.w3.org/1999/xlink" viewBox="0 0 288 288"><defs><style>.a{fill:url(#a);}.b{fill:url(#b);}</style><linearGradient id="a" x1="12.52" y1="119.79" x2="275.48" y2="119.79" gradientUnits="userSpaceOnUse"><stop offset="0" stop-color="#568dbb"/><stop offset="1" stop-color="#bbd1e4"/></linearGradient><linearGradient id="b" x1="98.12" y1="183.31" x2="180.9" y2="183.31" xlink:href="#a"/></defs><title>lll</title><path class="a" d="M249.24,111.63a68.32,68.32,0,0,0-17.65-5.58c-3.74-8.85-12.31-24.36-28.35-31.28-13.57-5.86-27.29-4.48-35.76-2.58-8.2-12-28.09-34.07-62.86-32.85C60.13,40.9,41.2,75.55,37.88,109.72c-11.78,5.54-26.31,18.85-25.31,43.52.75,18.73,9.72,32.66,25.93,40.27,9.71,4.56,21.78,6.77,36.89,6.77h25.3s10,0,10-9.63c0-10.75-10-10.37-10-10.37H75.39C38,180.28,33,164.39,32.55,152.43c-.36-8.83,2.28-15.78,7.84-20.63a25.83,25.83,0,0,1,9.35-5.19l7.37-1.56.3-7.79c.25-6.53,1.73-23.19,10.07-36.89s20.63-20.44,37.84-21c33.36-1.16,48,27.76,48.56,29l4.05,8.56,8.75-3.63c.14-.06,15.08-5.93,28.64-.08,13.79,6,19.31,24.64,19.36,24.79l1.95,7,7.24.31a49,49,0,0,1,16.68,4.43c10,4.84,14.93,12.53,14.93,23.5,0,22.81-12.72,27.13-36.19,27.13H177.91s-10-.06-10,10,10,10,10,10h41.38c7.7,0,22,0,34.07-6.1,10.09-5.11,22.12-16.39,22.12-41C275.48,134.54,266.16,119.79,249.24,111.63Z"/><path class="b" d="M177.77,150.31l-31.39-29.66a10,10,0,0,0-13.74,0l-31.39,29.66A10,10,0,0,0,115,164.85l14.53-13.72V238.7a10,10,0,0,0,20,0V151.13L164,164.85a10,10,0,0,0,13.74-14.54Z"/></svg>