<svg xmlns="http://www.w3.org/2000/svg" xmlns:xlink="http://www.w3.org/1999/xlink" viewBox="0 0 288 288"><defs><style>.a{fill:url(#a);}.b{fill:url(#b);}</style><linearGradient id="a" x1="105.34" y1="108.99" x2="182.66" y2="108.99" gradientUnits="userSpaceOnUse"><stop offset="0" stop-color="#568dbb"/><stop offset="1" stop-color="#bbd1e4"/></linearGradient><linearGradient id="b" x1="63.29" y1="144" x2="224.71" y2="144" xlink:href="#a"/></defs><title>lll</title><path class="a" d="M182.58,98.66a1.64,1.64,0,0,0-1.41-1.12l-25.26-2.06-9.8-23.8a1.61,1.61,0,0,0-3,0l-9.79,23.77-26.45,1.3a1.61,1.61,0,0,0-1.45,1.1,1.59,1.59,0,0,0,.48,1.75l20.39,17.33-8.09,27.65a1.62,1.62,0,0,0,2.46,1.8l24-16.09L169.68,147a1.66,1.66,0,0,0,.9.27,1.62,1.62,0,0,0,1.54-2.12L163,116.9l19.15-16.51A1.64,1.64,0,0,0,182.58,98.66Z"/><path class="b" d="M144,193.05a80.84,80.84,0,1,0-55.83-22.5,9.33,9.33,0,0,0-.15,1.6v75.22a9,9,0,0,0,14.57,7.07l21-16.55,14.84,12.62a9,9,0,0,0,11.32.28l15.84-12.17,19.74,15.78a9,9,0,0,0,14.62-7V209.45a9,9,0,0,0-18,0v19.2l-10.63-8.49a9,9,0,0,0-11.1-.11l-15.67,12-14.9-12.68a9,9,0,0,0-11.4-.22L106,228.83v-45.3A80.19,80.19,0,0,0,144,193.05ZM81.29,112.34A62.71,62.71,0,1,1,144,175.05,62.78,62.78,0,0,1,81.29,112.34Z"/></svg>