<svg xmlns="http://www.w3.org/2000/svg" xmlns:xlink="http://www.w3.org/1999/xlink" viewBox="0 0 288 288"><defs><style>.a{fill:url(#a);}.b{fill:url(#b);}.c{fill:url(#c);}.d{fill:url(#d);}</style><linearGradient id="a" x1="63.96" y1="219.73" x2="84.36" y2="219.73" gradientUnits="userSpaceOnUse"><stop offset="0" stop-color="#568dbb"/><stop offset="1" stop-color="#bbd1e4"/></linearGradient><linearGradient id="b" x1="137.58" y1="244.7" x2="157.98" y2="244.7" xlink:href="#a"/><linearGradient id="c" x1="199.53" y1="208.09" x2="219.92" y2="208.09" xlink:href="#a"/><linearGradient id="d" x1="13.59" y1="127.08" x2="274.41" y2="127.08" xlink:href="#a"/></defs><title>lll</title><path class="a" d="M64,196.21v37.28a10.2,10.2,0,0,0,20.4,0V195.77a59,59,0,0,1-11.43,1.12A60.32,60.32,0,0,1,64,196.21Z"/><path class="b" d="M137.58,230.88v17.89a10.2,10.2,0,0,0,20.4,0V230.44a59.15,59.15,0,0,1-20.4.44Z"/><path class="c" d="M199.53,169.74v66.51a10.2,10.2,0,1,0,20.39,0V170.19a63.07,63.07,0,0,1-20.39-.45Z"/><path class="d" d="M211.09,33a63.26,63.26,0,0,0-47.72,104.84,42.95,42.95,0,0,0-32.1.37,59.54,59.54,0,1,0-26.56,39.24c0,.18,0,.37,0,.55a43.09,43.09,0,0,0,43.09,43.08,42.63,42.63,0,0,0,11.53-1.58,43,43,0,0,0,23.45-66.61,63.23,63.23,0,0,0,28.33,6.74,64.28,64.28,0,0,0,8.83-.63,63.31,63.31,0,0,0-8.83-126ZM72.93,166.37a38.95,38.95,0,1,1,38.94-38.95A39,39,0,0,1,72.93,166.37Zm74.85,34.36A22.69,22.69,0,1,1,170.47,178,22.72,22.72,0,0,1,147.78,200.73Zm63.31-61.46A42.92,42.92,0,1,1,254,96.35,43,43,0,0,1,211.09,139.27Z"/></svg>