<svg xmlns="http://www.w3.org/2000/svg" xmlns:xlink="http://www.w3.org/1999/xlink" viewBox="0 0 288 288"><defs><style>.a{fill:url(#a);}.b{fill:url(#b);}</style><linearGradient id="a" x1="47.67" y1="144" x2="240.33" y2="144" gradientUnits="userSpaceOnUse"><stop offset="0" stop-color="#568dbb"/><stop offset="1" stop-color="#bbd1e4"/></linearGradient><linearGradient id="b" x1="128.14" y1="144" x2="159.86" y2="144" gradientTransform="translate(24.93 -21.21) rotate(9.22)" xlink:href="#a"/></defs><title>lll</title><path class="a" d="M214.9,178.55a2,2,0,0,0-.55-.35,78.2,78.2,0,0,0,.58-68.53l.06,0,24.68-22.35a2,2,0,0,0,.27-2.66L229.38,70.22a2,2,0,0,0-2.63-.54L198.07,86.53A78.2,78.2,0,0,0,158.3,66.27l-3.39-33a2,2,0,0,0-2-1.8H135.08a2,2,0,0,0-2,1.8l-3.39,33a78.13,78.13,0,0,0-39.44,20.2,1.67,1.67,0,0,0-.16-.12L61.43,69.48A2,2,0,0,0,58.8,70L48.2,84.37A2,2,0,0,0,48.46,87L73.1,109.45a1.78,1.78,0,0,0,.31.23,78.18,78.18,0,0,0,.45,68.26,2,2,0,0,0-.85.44L48.33,200.73a2,2,0,0,0-.27,2.66l10.56,14.39a2,2,0,0,0,1.62.81,2,2,0,0,0,1-.27L90,201.45a2,2,0,0,0,.77-.84,78.18,78.18,0,0,0,39.19,19.8,2,2,0,0,0-.23,1.15l3.4,33.13a2,2,0,0,0,2,1.8h17.84a2,2,0,0,0,2-1.8l3.4-33.13a1.94,1.94,0,0,0-.21-1.09A78.17,78.17,0,0,0,197.25,201a2.06,2.06,0,0,0,.65.63l28.67,16.94a2,2,0,0,0,1,.28,2,2,0,0,0,1.61-.81l10.6-14.36a2,2,0,0,0-.26-2.67Zm-70.73,23.18a58.38,58.38,0,1,1,58.38-58.38A58.45,58.45,0,0,1,144.17,201.73Z"/><circle class="b" cx="144" cy="144" r="15.86" transform="translate(-21.21 24.93) rotate(-9.22)"/></svg>