<svg xmlns="http://www.w3.org/2000/svg" xmlns:xlink="http://www.w3.org/1999/xlink" viewBox="0 0 288 288"><defs><style>.a{fill:url(#a);}.b{fill:url(#b);}.c{fill:url(#c);}.d{fill:url(#d);}</style><linearGradient id="a" x1="36.26" y1="144" x2="251.74" y2="144" gradientUnits="userSpaceOnUse"><stop offset="0" stop-color="#568dbb"/><stop offset="1" stop-color="#bbd1e4"/></linearGradient><linearGradient id="b" x1="71.45" y1="108.63" x2="125.34" y2="108.63" xlink:href="#a"/><linearGradient id="c" x1="160.92" y1="108.13" x2="214.48" y2="108.13" xlink:href="#a"/><linearGradient id="d" x1="90.83" y1="159.3" x2="198.92" y2="159.3" xlink:href="#a"/></defs><title>lll</title><path class="a" d="M144,36.26A107.74,107.74,0,1,0,251.74,144,107.86,107.86,0,0,0,144,36.26Zm0,195.48A87.74,87.74,0,1,1,231.74,144,87.84,87.84,0,0,1,144,231.74Z"/><path class="b" d="M91.11,117.78c.45-1.38,2.33-5.9,7.55-5.9,4.32,0,7.38,6.73,7.38,6.72s4.86,9.61,13.51,5.94,5-13.39,5-13.39C121.72,104,113,91.88,98.66,91.88c-16.57,0-24.73,13.25-26.73,20.25,0,0-2.93,9.49,5.6,11.83,10.67,2.94,13.63-6.33,13.63-6.33Z"/><path class="c" d="M214,111.15c-2.88-7.16-11.58-19.27-25.95-19.27-16.56,0-24.72,13.25-26.72,20.25,0,0-3,8.88,6.4,11.67,9.85,2.93,12.83-6.17,12.83-6.17l0,.15c.45-1.38,2.32-5.9,7.54-5.9,4.32,0,7.38,6.72,7.38,6.72s4.75,8.36,13.11,4.47S214,111.15,214,111.15Z"/><path class="d" d="M194,142.39a10,10,0,0,0-13.68,3.6c-.07.12-8,11.59-35.78,11.59-24.62,0-35-12.28-35.46-12.8l.09.11S103,137.27,94.66,144c-7.75,6.24-1.32,13.16-1.32,13.16.65.84,16.26,20.42,51.16,20.42,39.39,0,51.78-19.32,53.06-21.52A10,10,0,0,0,194,142.39Z"/></svg>