<svg xmlns="http://www.w3.org/2000/svg" xmlns:xlink="http://www.w3.org/1999/xlink" viewBox="0 0 288 288"><defs><style>.a{fill:url(#a);}</style><linearGradient id="a" x1="50.62" y1="144" x2="237.38" y2="144" gradientUnits="userSpaceOnUse"><stop offset="0" stop-color="#568dbb"/><stop offset="1" stop-color="#bbd1e4"/></linearGradient></defs><title>lll</title><path class="a" d="M205.45,141.76c-.4,23.12-7.66,41.21-23.56,58.66-14,15.34-35.07,26.59-43.77,30.84-8.7-4.25-29.81-15.5-43.78-30.84C78.45,183,71.18,164.88,70.79,141.76c-.27-15.81-.16-43.4-.07-58,13.16-1.23,37.1-6.43,67.4-26C161.74,73,181.49,79.55,195.29,82.26l-59.42,71.57L107.2,125A10,10,0,0,0,93,139.15l3.13,3.14,33.3,33.45a10,10,0,0,0,7.08,2.94H137a10,10,0,0,0,7.24-3.6L235.08,65.65a10,10,0,0,0-1-13.81,3.85,3.85,0,0,0-.3-.27,10,10,0,0,0-14.08,1.3l-9.3,11.2a79.43,79.43,0,0,1-15.24-2.27c-11.26-2.7-29.3-9.11-51.35-24.33a10,10,0,0,0-11.36,0c-22,15.22-40.1,21.63-51.35,24.33C69,64.7,62,64.06,62,64.06a9.79,9.79,0,0,0-7.82,2.34,9.91,9.91,0,0,0-3.37,7.5c0,.46-.38,45.85,0,68.2.48,28,9.62,50.77,28.77,71.79,20.83,22.88,53.23,37,54.6,37.59a10,10,0,0,0,7.92,0c1.36-.59,33.76-14.71,54.6-37.59,19.14-21,28.28-43.83,28.76-71.79.19-10.87.2-19.64.15-32.46,0-2.43.19-5,.17-9.87,0-4.64-20.91,15.53-20.26,24.44l.11,4.55C205.6,137.75,205.56,135.11,205.45,141.76Z"/></svg>