<svg xmlns="http://www.w3.org/2000/svg" xmlns:xlink="http://www.w3.org/1999/xlink" viewBox="0 0 288 288"><defs><style>.a{fill:url(#a);}</style><linearGradient id="a" x1="15.31" y1="144" x2="272.69" y2="144" gradientUnits="userSpaceOnUse"><stop offset="0" stop-color="#568dbb"/><stop offset="1" stop-color="#bbd1e4"/></linearGradient></defs><title>lll</title><path class="a" d="M272.58,104.46c-1.17-22.13-11.25-40.59-28.4-52-21.31-14.18-44.82-16.45-68-6.57a92.44,92.44,0,0,0-20.93,12.56,92.22,92.22,0,0,0-20.93-12.56c-23.18-9.88-46.69-7.61-68,6.57-17.14,11.41-27.23,29.87-28.39,52a89.47,89.47,0,0,0,5.65,35.59H25.31a10,10,0,0,0,0,20h86.42a10,10,0,0,0,9-5.75l5.73-12.19,9.06,33.76a10,10,0,0,0,18.07,2.81l20.28-31.59h28a10,10,0,0,0,0-20h-33.5a10,10,0,0,0-8.41,4.6l-11,17.16-10.28-38.31A10,10,0,0,0,120,108.87l-14.66,31.18H65.21c-5.33-11.27-7.92-23.07-7.31-34.54.83-15.65,7.75-28.58,19.5-36.4,10.1-6.72,19.82-9.19,28.66-9.19,23.67,0,40.94,17.73,41.91,18.74a10,10,0,0,0,14.57,0A71.52,71.52,0,0,1,184,64.29c16.92-7.21,33.44-5.59,49.08,4.82,11.75,7.82,18.68,20.75,19.5,36.4,1.28,24.09-11.53,49.72-34.24,68.57-32.1,26.63-53.36,43.64-63.11,51.35-6.35-5-31.75-25.61-47.69-38.62,0,0-11.33-9.23-18-1.68-6.12,6.93.62,13.29.62,13.29,38.52,31.79,58.72,47.47,58.93,47.64a10,10,0,0,0,12.26,0c.23-.19,24.18-18.78,69.75-56.59C258.69,166.6,274.18,134.83,272.58,104.46Z"/></svg>