<svg xmlns="http://www.w3.org/2000/svg" xmlns:xlink="http://www.w3.org/1999/xlink" viewBox="0 0 288 288"><defs><style>.a{fill:url(#a);}.b{fill:url(#b);}</style><linearGradient id="a" x1="78.91" y1="144" x2="209.09" y2="144" gradientUnits="userSpaceOnUse"><stop offset="0" stop-color="#568dbb"/><stop offset="1" stop-color="#bbd1e4"/></linearGradient><linearGradient id="b" x1="162.26" y1="72.55" x2="202.37" y2="72.55" xlink:href="#a"/></defs><title>lll</title><path class="a" d="M151.94,134.07l-.43-.09V42.66a10.74,10.74,0,0,0-21.47,0V54.81C103,59.06,84.39,77.57,84.39,101.92v.5c0,27.38,17.79,39.7,45.65,47.51v63.43c-12.45-2.88-23.51-8.78-34.84-18.37l-.1-.09a9.2,9.2,0,0,0-6.25-2.33,10,10,0,0,0-9.94,10.19,9.37,9.37,0,0,0,3.87,7.82l.12.08c14.59,11.59,30.15,18.78,47.14,21.8v12.88a10.73,10.73,0,0,0,10.74,10.73h0a10.73,10.73,0,0,0,10.69-10.73V155c24.35,5.87,36.71,13.1,36.71,30.8v.5c0,13.8-10.21,24.25-26,27.82v19c11.69-1.8,21.87-6,29.88-12.57,11.09-9,17-21.55,17-36.22v-.5C209.09,157.69,192,142.8,151.94,134.07Zm-21.9-5.8c-18.51-6.35-25-14.24-25-27.59v-.5c0-13.17,9.86-23.13,25-26.46Z"/><path class="b" d="M192.43,89.45a10,10,0,0,0,9.94-9.94,10.71,10.71,0,0,0-4.47-8.38,87,87,0,0,0-35.64-15.49V75.33a77.76,77.76,0,0,1,24.18,12.3A9.6,9.6,0,0,0,192.43,89.45Z"/></svg>