<svg xmlns="http://www.w3.org/2000/svg" xmlns:xlink="http://www.w3.org/1999/xlink" viewBox="0 0 288 288"><defs><style>.a{fill:url(#a);}.b{fill:url(#b);}.c{fill:url(#c);}.d{fill:url(#d);}.e{fill:url(#e);}.f{fill:url(#f);}</style><linearGradient id="a" x1="27.81" y1="144" x2="88.23" y2="144" gradientUnits="userSpaceOnUse"><stop offset="0" stop-color="#568dbb"/><stop offset="1" stop-color="#bbd1e4"/></linearGradient><linearGradient id="b" x1="98.88" y1="148.05" x2="260.19" y2="148.05" xlink:href="#a"/><linearGradient id="c" x1="27.81" y1="73.94" x2="88.23" y2="73.94" xlink:href="#a"/><linearGradient id="d" x1="98.88" y1="77.99" x2="260.19" y2="77.99" xlink:href="#a"/><linearGradient id="e" x1="27.81" y1="214.06" x2="88.23" y2="214.06" xlink:href="#a"/><linearGradient id="f" x1="98.88" y1="218.11" x2="260.19" y2="218.11" xlink:href="#a"/></defs><title>lll</title><path class="a" d="M50,168.1A10,10,0,0,1,43,165.17L30.73,153a10,10,0,0,1,14.15-14.14L50,144l21.13-21.13A10,10,0,0,1,85.3,137l-28.2,28.2A10,10,0,0,1,50,168.1Z"/><path class="b" d="M250.19,158.05H108.88a10,10,0,0,1,0-20H250.19a10,10,0,0,1,0,20Z"/><path class="c" d="M50,98A10,10,0,0,1,43,95.12L30.73,82.9A10,10,0,0,1,44.88,68.75L50,73.9,71.16,52.77A10,10,0,0,1,85.3,66.91L57.1,95.12A10,10,0,0,1,50,98Z"/><path class="d" d="M250.19,88H108.88a10,10,0,0,1,0-20H250.19a10,10,0,0,1,0,20Z"/><path class="e" d="M50,238.16A10,10,0,0,1,43,235.23L30.74,223a10,10,0,1,1,14.14-14.15L50,214l21.13-21.13A10,10,0,1,1,85.3,207l-28.2,28.2A10,10,0,0,1,50,238.16Z"/><path class="f" d="M250.19,228.11H108.88a10,10,0,0,1,0-20H250.19a10,10,0,0,1,0,20Z"/></svg>