<?xml version="1.0" encoding="utf-8"?>
<!-- Generator: Adobe Illustrator 23.1.1, SVG Export Plug-In . SVG Version: 6.00 Build 0)  -->
<svg version="1.1" id="Layer_1" xmlns="http://www.w3.org/2000/svg" xmlns:xlink="http://www.w3.org/1999/xlink" x="0px" y="0px"
	 viewBox="0 0 493.25 93.83" style="enable-background:new 0 0 493.25 93.83;" xml:space="preserve">
<style type="text/css">
	.st0{fill:#FFFFFF;}
</style>
<g>
	<g>
		<polygon class="st0" points="116.71,61.87 88.33,23.43 82.72,23.43 82.72,70.73 88.13,70.73 88.13,32.35 116.5,70.73 
			122.04,70.73 122.04,23.43 116.71,23.43 		"/>
		<path class="st0" d="M145.69,34.98c-10.34,0.07-17.63,7.36-17.63,17.97c0,10.61,7.23,17.97,17.7,17.97
			c5.95,0,10.95-2.16,14.32-5.88l-2.91-3.04c-2.77,2.91-6.62,4.53-11.01,4.53c-6.96,0-12.03-4.59-12.9-11.62h29.05
			C162.85,42.89,157.18,34.98,145.69,34.98z M133.26,50.73c0.74-6.89,5.61-11.35,12.43-11.35c6.96,0,11.55,4.46,11.89,11.35H133.26z
			"/>
		<polygon class="st0" points="205.15,65.39 194.68,35.19 189.14,35.19 178.8,65.39 168.26,35.19 162.72,35.19 176.03,70.73 
			181.5,70.73 191.91,41.61 202.38,70.73 207.85,70.73 221.03,35.19 215.56,35.19 		"/>
		<path class="st0" d="M245.22,34.98c-6.22,0-11.08,2.91-13.72,7.84v-7.64h-5.27v48.65h5.27V63.09c2.63,4.93,7.5,7.84,13.85,7.84
			c10.07,0,16.96-7.37,16.96-17.91C262.31,42.42,255.29,34.98,245.22,34.98z M244.27,66.27c-7.5,0-12.77-5.54-12.77-13.38
			c0-7.77,5.27-13.38,12.77-13.38c7.43,0,12.7,5.68,12.7,13.38C256.98,60.66,251.71,66.27,244.27,66.27z"/>
		<path class="st0" d="M284.68,34.98c-10.54,0-18.04,7.36-18.04,17.91c0,10.67,7.5,18.04,18.04,18.04s18.04-7.37,18.04-18.04
			C302.72,42.35,295.22,34.98,284.68,34.98z M284.68,66.33c-7.43,0-12.77-5.41-12.77-13.38c0-7.84,5.34-13.31,12.77-13.31
			s12.77,5.47,12.77,13.31C297.45,60.93,292.11,66.33,284.68,66.33z"/>
		<path class="st0" d="M313.19,43.09v-7.9h-5.27v35.54h5.27V51.81c0.61-7.16,5.27-11.82,12.77-11.69v-5.13
			C319.95,35.05,315.56,37.89,313.19,43.09z"/>
		<path class="st0" d="M345.63,66.06c-3.04,0-4.73-1.76-4.73-6.08V40.39h11.28v-4.12H340.9v-9.32h-5.2v9.32h-5.13v4.12h5.13v20.47
			c0,7.03,3.85,10.13,9.05,10.07c2.84,0,5.54-0.95,8.04-2.64l-1.49-4.05C349.34,65.39,347.45,66,345.63,66.06z"/>
		<polygon class="st0" points="384.14,57.75 366.84,23.43 360.15,23.43 360.15,70.73 365.29,70.73 365.29,31.4 382.45,65.73 
			385.69,65.73 402.92,31.4 402.99,70.73 407.99,70.73 407.99,23.43 401.37,23.43 		"/>
		<path class="st0" d="M430.29,34.98c-10.34,0.07-17.63,7.36-17.63,17.97c0,10.61,7.23,17.97,17.7,17.97
			c5.95,0,10.95-2.16,14.32-5.88l-2.91-3.04c-2.77,2.91-6.62,4.53-11.01,4.53c-6.96,0-12.03-4.59-12.91-11.62h29.05
			C447.45,42.89,441.77,34.98,430.29,34.98z M417.85,50.73c0.74-6.89,5.61-11.35,12.43-11.35c6.96,0,11.55,4.46,11.89,11.35H417.85z
			"/>
		<path class="st0" d="M482.04,20.59v22.3c-2.63-5.07-7.57-7.97-13.92-7.97c-10.07,0-17.09,7.36-17.09,17.97
			c0,10.61,7.03,18.11,17.16,18.11c6.35,0,11.22-2.91,13.85-7.91v7.63h5.27V20.59H482.04z M469.21,66.47
			c-7.57,0-12.91-5.61-12.91-13.45s5.34-13.51,12.91-13.51c7.5,0,12.84,5.68,12.84,13.51S476.71,66.47,469.21,66.47z"/>
	</g>
	<g>
		<path class="st0" d="M29.67,47.81c-0.4-0.25-0.87-0.4-1.38-0.4H3.9c-0.51,0-0.98,0.15-1.38,0.4h0c-0.73,0.46-1.22,1.27-1.22,2.2
			v24.39c0,0.93,0.49,1.74,1.22,2.2c0.4,0.25,0.87,0.4,1.38,0.4h24.39c1.44,0,2.61-1.17,2.61-2.61V50.02
			C30.89,49.09,30.4,48.28,29.67,47.81z M11.22,60.25l-0.2,1.04l-1.37-0.04L9.51,60.2c-0.37-0.1-0.72-0.26-1.04-0.47l-0.88,0.6
			l-0.94-1l0.65-0.85c-0.19-0.33-0.32-0.69-0.4-1.06l-1.06-0.2l0.04-1.37l1.08-0.14c0.1-0.36,0.26-0.7,0.46-1.01L6.8,53.79l1-0.94
			l0.88,0.67c0.32-0.18,0.66-0.31,1.02-0.39l0.21-1.09l1.37,0.04l0.15,1.1c0.36,0.1,0.69,0.25,1,0.44L13.34,53l0.94,1l-0.67,0.87
			c0.19,0.32,0.32,0.67,0.4,1.04l1.07,0.2l-0.04,1.37l-1.07,0.14c-0.1,0.37-0.25,0.72-0.46,1.03l0.6,0.89l-1,0.94l-0.85-0.65
			C11.96,60.02,11.6,60.16,11.22,60.25z M25.8,68.6l-2.08-0.42c-0.26,0.36-0.56,0.68-0.89,0.95l0.55,2.04l-1.95,0.88l-1.16-1.75
			c-0.43,0.07-0.88,0.09-1.32,0.05l-1.04,1.82l-2-0.76l0.42-2.05c-0.36-0.26-0.68-0.57-0.96-0.91l-2.03,0.55l-0.88-1.95l1.76-1.17
			c-0.06-0.43-0.08-0.86-0.03-1.3l-1.84-1.06l0.76-2l2.1,0.43c0.26-0.34,0.55-0.65,0.88-0.92l-0.56-2.08l1.95-0.88l1.2,1.81
			c0.41-0.06,0.83-0.07,1.25-0.04l1.08-1.88l2,0.76l-0.43,2.13c0.34,0.25,0.64,0.54,0.91,0.85l2.1-0.57l0.88,1.95l-1.8,1.19
			c0.07,0.42,0.08,0.84,0.05,1.27l1.86,1.07L25.8,68.6z"/>
		<path class="st0" d="M10.51,55.14c-0.01,0-0.03,0-0.04,0c-0.84,0-1.53,0.67-1.55,1.51c-0.01,0.41,0.14,0.81,0.42,1.11
			c0.28,0.3,0.67,0.47,1.08,0.48c0.85,0.02,1.57-0.65,1.59-1.51c0.01-0.41-0.14-0.81-0.42-1.11C11.31,55.32,10.92,55.15,10.51,55.14
			z"/>
		<path class="st0" d="M20.36,62.66c-1.34-0.51-2.84,0.17-3.34,1.51c-0.51,1.34,0.17,2.84,1.51,3.34c1.34,0.51,2.84-0.17,3.34-1.51
			S21.69,63.17,20.36,62.66z"/>
		<path class="st0" d="M50.82,61.24c-1.34-0.61-1.56-0.88-1.56-1.27c0-0.48,0.58-0.58,1.06-0.58c0.59,0,1.22,0.19,1.7,0.51
			l0.26,0.17l0.81-2.1l-0.18-0.11c-0.52-0.31-1.17-0.54-1.84-0.65v-1.53H49v1.58c-1.45,0.34-2.3,1.37-2.3,2.81
			c0,1.49,0.78,2.44,2.68,3.27c1.2,0.52,1.58,0.87,1.58,1.44c0,0.75-0.94,0.83-1.35,0.83c-0.73,0-1.54-0.25-2.12-0.65l-0.26-0.18
			l-0.81,2.13l0.18,0.11c0.68,0.42,1.52,0.7,2.39,0.8v1.5h2.07V67.7c1.56-0.39,2.46-1.5,2.46-3.08
			C53.52,63.09,52.74,62.11,50.82,61.24z"/>
		<path class="st0" d="M61.89,47.41H37.5c-1.44,0-2.61,1.17-2.61,2.61v24.39c0,1.44,1.17,2.61,2.61,2.61h24.39
			c1.44,0,2.61-1.17,2.61-2.61V50.02C64.49,48.58,63.33,47.41,61.89,47.41z M50.01,71.32c-4.87,0-8.83-3.96-8.83-8.83
			c0-4.87,3.96-8.83,8.83-8.83c4.87,0,8.83,3.96,8.83,8.83C58.83,67.36,54.87,71.32,50.01,71.32z"/>
		<path class="st0" d="M28.28,13.81H3.9c-1.44,0-2.61,1.17-2.61,2.61V40.8c0,1.44,1.17,2.61,2.61,2.61h24.39
			c1.44,0,2.61-1.17,2.61-2.61V16.41C30.89,14.97,29.72,13.81,28.28,13.81z M24.77,31.51h-5.87v5.87h-5.63v-5.87H7.4v-5.63h5.87
			v-5.87h5.63v5.87h5.87V31.51z"/>
		<path class="st0" d="M61.89,13.81H37.5c-1.44,0-2.61,1.17-2.61,2.61V40.8c0,1.44,1.17,2.61,2.61,2.61h24.39
			c1.44,0,2.61-1.17,2.61-2.61V16.41C64.49,14.97,63.33,13.81,61.89,13.81z M56.73,35.08H42.15c-2.18,0-3.63-1.12-3.31-3.09
			c0.41-2.52,3.22-2.44,3.22-2.44s-0.59-2.22,1.64-3.77c1.79-1.25,4.09-0.32,4.09-0.32s0.87-4.07,5.36-3.25
			c4.19,0.77,3.22,5.26,3.22,5.26s4.22-0.05,4.22,3.9C60.59,33.9,59.37,35.08,56.73,35.08z"/>
	</g>
</g>
</svg>
